# xmcd
#
# Track frame offsets: 
#        150
#        19780
#        40332
#        68372
#        79782
#        96380
#        122295
#        131907
#        159982
#        202765
#        226692
#
# Disc length: 3386 seconds
#
# Revision: 6
# Processed by: cddbd v1.5.1PL0 Copyright (c) Steve Scherf et al.
# Submitted via: ExactAudioCopy v0.95a5
#
DISCID=7c0d380b
DTITLE=Son House - The Original Delta Blues
DYEAR=1965
DGENRE=Blues
TTITLE0=Death Letter
TTITLE1=Pearline
TTITLE2=Louise McGhee
TTITLE3=John The Revelator
TTITLE4=Empire State Express
TTITLE5=Preachin' Blues
TTITLE6=Grinnin' In Your Face
TTITLE7=Sundown
TTITLE8=Levee Camp Moan
TTITLE9=Pony Blues
TTITLE10=Downhearted Blues
EXTD=
EXTT0=
EXTT1=
EXTT2=
EXTT3=
EXTT4=
EXTT5=
EXTT6=
EXTT7=
EXTT8=
EXTT9=
EXTT10=
PLAYORDER=
